<mxfile host="app.diagrams.net" modified="2023-11-05T09:13:51.650Z" agent="Mozilla/5.0 (Windows NT 10.0; Win64; x64) AppleWebKit/537.36 (KHTML, like Gecko) Chrome/116.0.0.0 Safari/537.36 OPR/102.0.0.0" version="22.0.8" etag="mS_Z7jfw49wlWWcz7Aix" type="github">
  <diagram name="Page-1" id="aa4PAD96gaYdPB3jkKLp">
    <mxGraphModel>
      <root>
        <mxCell id="0" />
        <mxCell id="1" parent="0" />
      </root>
    </mxGraphModel>
  </diagram>
</mxfile>
